<svg version="1.1" id="Layer_1" xmlns="http://www.w3.org/2000/svg" xmlns:xlink="http://www.w3.org/1999/xlink" x="0px" y="0px"
	 width="100%" viewBox="0 0 1024 1024" enable-background="new 0 0 1024 1024" xml:space="preserve">
<path fill="#000000" opacity="1.000000" stroke="none" 
	d="
M479.552185,938.551636 
	C430.115143,935.028992 383.331421,922.779297 338.545746,902.899414 
	C300.851501,886.167297 266.236420,864.368896 234.993332,837.445557 
	C177.876938,788.226501 136.580933,728.042664 110.884293,657.128418 
	C99.030151,624.415039 91.781761,590.651306 87.890221,556.176331 
	C84.951271,530.140320 85.265030,504.041199 87.453362,477.894836 
	C91.245438,432.587067 101.655342,388.931549 119.287613,347.079529 
	C138.274323,302.012512 164.299026,261.359497 197.246643,225.152008 
	C228.704086,190.582108 264.928528,162.046982 305.708344,139.309067 
	C347.085327,116.238182 391.253540,101.107330 437.855194,92.589638 
	C471.509155,86.438477 505.430725,85.185432 539.351562,87.050880 
	C609.454285,90.906090 674.736877,111.265175 734.770264,147.801117 
	C796.625793,185.445969 845.863708,235.678619 882.414917,298.148041 
	C906.492126,339.298187 923.017944,383.439392 931.998291,430.287994 
	C938.090820,462.071747 941.271729,494.206726 940.006897,526.567993 
	C936.494629,616.425659 908.411011,697.694214 854.367432,769.888672 
	C816.588989,820.355225 769.770203,860.221985 714.311157,889.810730 
	C676.218628,910.134033 635.942261,924.683472 593.306885,932.526611 
	C565.216980,937.693970 536.956726,940.301819 508.436096,940.063477 
	C498.958282,939.984375 489.487000,939.120422 479.552185,938.551636 
M537.727356,599.227966 
	C532.391602,604.722229 526.662048,609.833679 522.003113,615.978333 
	C505.412903,637.859436 514.430481,670.128296 540.130188,679.830078 
	C558.109680,686.617554 573.869934,682.177673 587.249573,668.895752 
	C609.126770,647.178223 630.816833,625.272461 652.635132,603.495422 
	C671.739685,584.426941 690.824829,565.337585 710.090637,546.432800 
	C719.812500,536.893066 725.817322,525.870911 725.639404,511.981659 
	C725.470703,498.814850 719.279297,488.665497 710.160217,479.597809 
	C669.646667,439.312836 629.319336,398.840576 588.922852,358.437927 
	C585.737305,355.251923 582.387024,352.260559 578.645325,349.726379 
	C554.716797,333.519989 520.963989,347.221924 515.291626,375.387848 
	C512.080994,391.330200 516.136108,405.056335 527.556274,416.566040 
	C543.751770,432.888428 560.032349,449.126465 576.230286,465.446442 
	C577.534851,466.760834 579.657959,467.655090 579.389709,470.556030 
	C576.422546,470.701416 573.467346,470.972473 570.512146,470.972534 
	C496.355957,470.974396 422.199738,470.936707 348.043549,470.953186 
	C343.552856,470.954193 338.986420,470.895538 334.585083,471.636261 
	C318.036957,474.421295 303.071320,489.801239 301.350891,505.384827 
	C298.987274,526.794312 308.324707,544.081238 326.129089,551.482666 
	C333.056335,554.362305 340.270538,554.961243 347.658752,554.958130 
	C422.814972,554.926697 497.971161,554.938110 573.127380,554.992126 
	C575.307678,554.993713 577.782532,554.130554 580.201904,556.737427 
	C566.177734,570.769287 552.204346,584.750366 537.727356,599.227966 
z"/>
</svg>